<mxfile host="65bd71144e">
    <diagram id="xGBv2MGBIPi1VP6IrdJr" name="Page-1">
        <mxGraphModel dx="526" dy="638" grid="1" gridSize="10" guides="1" tooltips="1" connect="1" arrows="1" fold="1" page="1" pageScale="1" pageWidth="827" pageHeight="1169" math="0" shadow="0">
            <root>
                <mxCell id="0"/>
                <mxCell id="1" parent="0"/>
                <mxCell id="2" value="V_in" style="text;html=1;align=center;verticalAlign=middle;resizable=0;points=[];autosize=1;strokeColor=none;fontSize=18;" parent="1" vertex="1">
                    <mxGeometry x="67" y="105" width="50" height="30" as="geometry"/>
                </mxCell>
                <mxCell id="3" value="V_out&amp;nbsp;" style="text;html=1;align=center;verticalAlign=middle;resizable=0;points=[];autosize=1;strokeColor=none;fontSize=18;" parent="1" vertex="1">
                    <mxGeometry x="320" y="105" width="70" height="30" as="geometry"/>
                </mxCell>
                <mxCell id="7" style="edgeStyle=orthogonalEdgeStyle;rounded=0;orthogonalLoop=1;jettySize=auto;html=1;fontSize=18;endArrow=none;endFill=0;" parent="1" edge="1">
                    <mxGeometry relative="1" as="geometry">
                        <mxPoint x="310" y="120" as="targetPoint"/>
                        <mxPoint x="200" y="120" as="sourcePoint"/>
                    </mxGeometry>
                </mxCell>
                <mxCell id="8" value="" style="pointerEvents=1;verticalLabelPosition=bottom;shadow=0;dashed=0;align=center;html=1;verticalAlign=top;shape=mxgraph.electrical.resistors.resistor_2;fontSize=18;rotation=-90;" parent="1" vertex="1">
                    <mxGeometry x="187.5" y="163" width="95" height="10" as="geometry"/>
                </mxCell>
                <mxCell id="9" value="" style="pointerEvents=1;verticalLabelPosition=bottom;shadow=0;dashed=0;align=center;html=1;verticalAlign=top;shape=mxgraph.electrical.signal_sources.signal_ground;fontSize=18;" parent="1" vertex="1">
                    <mxGeometry x="212.5" y="215" width="45" height="30" as="geometry"/>
                </mxCell>
                <mxCell id="10" value="L" style="text;html=1;align=center;verticalAlign=middle;resizable=0;points=[];autosize=1;strokeColor=none;fontSize=18;" parent="1" vertex="1">
                    <mxGeometry x="145" y="143" width="30" height="30" as="geometry"/>
                </mxCell>
                <mxCell id="11" value="R" style="text;html=1;align=center;verticalAlign=middle;resizable=0;points=[];autosize=1;strokeColor=none;fontSize=18;" parent="1" vertex="1">
                    <mxGeometry x="257.5" y="153" width="30" height="30" as="geometry"/>
                </mxCell>
                <mxCell id="12" value="" style="endArrow=classic;html=1;fontSize=18;" parent="1" edge="1">
                    <mxGeometry width="50" height="50" relative="1" as="geometry">
                        <mxPoint x="142.5" y="90" as="sourcePoint"/>
                        <mxPoint x="212.5" y="90" as="targetPoint"/>
                    </mxGeometry>
                </mxCell>
                <mxCell id="13" value="I" style="text;html=1;align=center;verticalAlign=middle;resizable=0;points=[];autosize=1;strokeColor=none;fontSize=18;" parent="1" vertex="1">
                    <mxGeometry x="160" y="60" width="20" height="30" as="geometry"/>
                </mxCell>
                <mxCell id="14" value="" style="pointerEvents=1;verticalLabelPosition=bottom;shadow=0;dashed=0;align=center;html=1;verticalAlign=top;shape=mxgraph.electrical.inductors.inductor_5;" vertex="1" parent="1">
                    <mxGeometry x="120" y="111" width="80" height="14" as="geometry"/>
                </mxCell>
            </root>
        </mxGraphModel>
    </diagram>
</mxfile>